# xmcd CD database file
#
# Track frame offsets:
#	150
#	14513
#	27783
#	40973
#	54248
#	68163
#	80433
#	92508
#	106396
#	119891
#	133891
#	146858
#	160551
#	174582
#	187489
#	202039
#	215268
#	229421
#	242811
#	257041
#
# Disc length: 3616 seconds
#
# Revision: 0
# Processed by: cddbd v1.5.2PL0 Copyright (c) Steve Scherf et al.
# Submitted via: CDex 1.70beta2
#
DISCID=2b0e1e14
DTITLE=Charley Patton - 20 Légendes du Blues CD 03
DYEAR=2008
DGENRE=Blues
TTITLE0=Spoonful Blues
TTITLE1=Love My Stuff
TTITLE2=Tou're Gonna Need Somebody When Tou Die
TTITLE3=1934 Blues
TTITLE4=Mississippi Bo Weavit Blues
TTITLE5=Hang It On The Wall
TTITLE6=Revenue Man Blues
TTITLE7=Screamin' And Hollerin Blues
TTITLE8=Some Summer Day
TTITLE9=When Your Way Gets Dark
TTITLE10=Some Of These Days I'll Be Gone
TTITLE11=Jim LMee Blues
TTITLE12=Jersey Bull Blues
TTITLE13=Oh Death
TTITLE14=Hammer Blues
TTITLE15=Poor Me
TTITLE16=Joe Kirby
TTITLE17=Pony Blues
TTITLE18=Green River Blues
TTITLE19=Some Happy Day
EXTD=YEAR: 2008
EXTT0=
EXTT1=
EXTT2=
EXTT3=
EXTT4=
EXTT5=
EXTT6=
EXTT7=
EXTT8=
EXTT9=
EXTT10=
EXTT11=
EXTT12=
EXTT13=
EXTT14=
EXTT15=
EXTT16=
EXTT17=
EXTT18=
EXTT19=
PLAYORDER=
